<mxfile host="app.diagrams.net" modified="2023-11-07T22:00:59.950Z" agent="Mozilla/5.0 (Windows NT 10.0; Win64; x64) AppleWebKit/537.36 (KHTML, like Gecko) Chrome/118.0.0.0 Safari/537.36" etag="ECXBbnqwvZNYzmOdeO1V" version="22.0.8" type="github">
  <diagram name="Page-1" id="822b0af5-4adb-64df-f703-e8dfc1f81529">
    <mxGraphModel dx="4685" dy="1950" grid="1" gridSize="10" guides="1" tooltips="1" connect="1" arrows="1" fold="1" page="1" pageScale="1" pageWidth="1100" pageHeight="850" background="none" math="0" shadow="0">
      <root>
        <mxCell id="0" />
        <mxCell id="1" parent="0" />
        <mxCell id="7d933b09d9755ecc-4" value="" style="verticalLabelPosition=bottom;aspect=fixed;html=1;verticalAlign=top;strokeColor=none;shape=mxgraph.citrix.directory_server;rounded=0;shadow=0;comic=0;fontFamily=Verdana;" parent="1" vertex="1">
          <mxGeometry x="320" y="131.5" width="65" height="88.5" as="geometry" />
        </mxCell>
        <mxCell id="Abwd0332JbdawSn48phl-2" value="WEB&lt;br&gt;(angular)" style="shape=process;whiteSpace=wrap;html=1;backgroundOutline=1;" parent="1" vertex="1">
          <mxGeometry x="60" y="150" width="180" height="60" as="geometry" />
        </mxCell>
        <mxCell id="Abwd0332JbdawSn48phl-3" value="BackEnd&lt;br&gt;(Spring boot)" style="shape=process;whiteSpace=wrap;html=1;backgroundOutline=1;" parent="1" vertex="1">
          <mxGeometry x="450" y="150" width="180" height="60" as="geometry" />
        </mxCell>
        <mxCell id="Abwd0332JbdawSn48phl-7" value="" style="shape=cylinder3;whiteSpace=wrap;html=1;boundedLbl=1;backgroundOutline=1;size=15;" parent="1" vertex="1">
          <mxGeometry x="890" y="140" width="60" height="80" as="geometry" />
        </mxCell>
        <mxCell id="Abwd0332JbdawSn48phl-8" value="Cliente 2" style="rounded=1;whiteSpace=wrap;html=1;" parent="1" vertex="1">
          <mxGeometry x="950" y="155" width="120" height="50" as="geometry" />
        </mxCell>
        <mxCell id="Abwd0332JbdawSn48phl-13" value="PC-1&lt;br&gt;Se quiere conectar&lt;br&gt;al Cliente 2" style="rounded=1;whiteSpace=wrap;html=1;" parent="1" vertex="1">
          <mxGeometry x="-250" y="140" width="120" height="60" as="geometry" />
        </mxCell>
        <mxCell id="Abwd0332JbdawSn48phl-22" value="Backend &quot;escucha&quot; la cola de mensajes del backend principal" style="shape=process;whiteSpace=wrap;html=1;backgroundOutline=1;" parent="1" vertex="1">
          <mxGeometry x="890" y="250" width="190" height="60" as="geometry" />
        </mxCell>
        <mxCell id="Abwd0332JbdawSn48phl-23" value="Obtener Lista de Productos" style="rounded=0;whiteSpace=wrap;html=1;" parent="1" vertex="1">
          <mxGeometry x="-210" y="230" width="170" height="60" as="geometry" />
        </mxCell>
        <mxCell id="Abwd0332JbdawSn48phl-26" value="" style="edgeStyle=orthogonalEdgeStyle;rounded=0;orthogonalLoop=1;jettySize=auto;html=1;" parent="1" source="Abwd0332JbdawSn48phl-24" target="Abwd0332JbdawSn48phl-25" edge="1">
          <mxGeometry relative="1" as="geometry">
            <Array as="points">
              <mxPoint x="155" y="450" />
            </Array>
          </mxGeometry>
        </mxCell>
        <mxCell id="Abwd0332JbdawSn48phl-24" value="GET productos/paginate" style="rounded=0;whiteSpace=wrap;html=1;" parent="1" vertex="1">
          <mxGeometry x="70" y="310" width="170" height="60" as="geometry" />
        </mxCell>
        <mxCell id="Abwd0332JbdawSn48phl-25" value="Recibir Petición" style="whiteSpace=wrap;html=1;rounded=0;" parent="1" vertex="1">
          <mxGeometry x="480" y="425" width="120" height="60" as="geometry" />
        </mxCell>
        <mxCell id="Abwd0332JbdawSn48phl-27" value="Encontrar a que Cliente pertenece: Obtiene la IP del cliente" style="whiteSpace=wrap;html=1;rounded=0;" parent="1" vertex="1">
          <mxGeometry x="480" y="530" width="120" height="60" as="geometry" />
        </mxCell>
        <mxCell id="Abwd0332JbdawSn48phl-29" value="Graba en la cola de mensajes del Cliente 2" style="whiteSpace=wrap;html=1;rounded=0;" parent="1" vertex="1">
          <mxGeometry x="480" y="640" width="120" height="60" as="geometry" />
        </mxCell>
        <mxCell id="Abwd0332JbdawSn48phl-30" value="Backend &quot;escucha&quot; la cola de mensajes del backend principal" style="shape=process;whiteSpace=wrap;html=1;backgroundOutline=1;" parent="1" vertex="1">
          <mxGeometry x="890" y="720" width="190" height="60" as="geometry" />
        </mxCell>
        <mxCell id="Abwd0332JbdawSn48phl-31" value="" style="endArrow=none;html=1;rounded=0;entryX=0.5;entryY=1;entryDx=0;entryDy=0;exitX=0.5;exitY=0;exitDx=0;exitDy=0;" parent="1" source="Abwd0332JbdawSn48phl-27" target="Abwd0332JbdawSn48phl-25" edge="1">
          <mxGeometry width="50" height="50" relative="1" as="geometry">
            <mxPoint x="500" y="620" as="sourcePoint" />
            <mxPoint x="550" y="570" as="targetPoint" />
          </mxGeometry>
        </mxCell>
        <mxCell id="Abwd0332JbdawSn48phl-32" value="" style="endArrow=none;html=1;rounded=0;exitX=0.5;exitY=0;exitDx=0;exitDy=0;" parent="1" source="Abwd0332JbdawSn48phl-29" edge="1">
          <mxGeometry width="50" height="50" relative="1" as="geometry">
            <mxPoint x="539.47" y="635" as="sourcePoint" />
            <mxPoint x="539" y="590" as="targetPoint" />
          </mxGeometry>
        </mxCell>
        <mxCell id="Abwd0332JbdawSn48phl-34" value="" style="edgeStyle=orthogonalEdgeStyle;rounded=0;orthogonalLoop=1;jettySize=auto;html=1;exitX=0.5;exitY=1;exitDx=0;exitDy=0;" parent="1" source="Abwd0332JbdawSn48phl-29" edge="1">
          <mxGeometry relative="1" as="geometry">
            <mxPoint x="565" y="680" as="sourcePoint" />
            <mxPoint x="890" y="760" as="targetPoint" />
            <Array as="points">
              <mxPoint x="565" y="700" />
              <mxPoint x="565" y="760" />
            </Array>
          </mxGeometry>
        </mxCell>
        <mxCell id="Abwd0332JbdawSn48phl-35" value="Realiza la petición en la base de datos y devuelve los datos." style="shape=process;whiteSpace=wrap;html=1;backgroundOutline=1;" parent="1" vertex="1">
          <mxGeometry x="890" y="840" width="190" height="60" as="geometry" />
        </mxCell>
        <mxCell id="Abwd0332JbdawSn48phl-37" value="Recibir Datos puros" style="whiteSpace=wrap;html=1;rounded=0;" parent="1" vertex="1">
          <mxGeometry x="480" y="840" width="120" height="60" as="geometry" />
        </mxCell>
        <mxCell id="Abwd0332JbdawSn48phl-38" value="" style="endArrow=classic;html=1;rounded=0;entryX=1;entryY=0.5;entryDx=0;entryDy=0;exitX=0;exitY=0.5;exitDx=0;exitDy=0;" parent="1" source="Abwd0332JbdawSn48phl-35" target="Abwd0332JbdawSn48phl-37" edge="1">
          <mxGeometry width="50" height="50" relative="1" as="geometry">
            <mxPoint x="500" y="620" as="sourcePoint" />
            <mxPoint x="550" y="570" as="targetPoint" />
          </mxGeometry>
        </mxCell>
        <mxCell id="Abwd0332JbdawSn48phl-39" value="" style="endArrow=classic;html=1;rounded=0;entryX=0.5;entryY=0;entryDx=0;entryDy=0;" parent="1" target="Abwd0332JbdawSn48phl-35" edge="1">
          <mxGeometry width="50" height="50" relative="1" as="geometry">
            <mxPoint x="985" y="780" as="sourcePoint" />
            <mxPoint x="550" y="570" as="targetPoint" />
          </mxGeometry>
        </mxCell>
        <mxCell id="Abwd0332JbdawSn48phl-40" value="Procesar Petición" style="whiteSpace=wrap;html=1;rounded=0;" parent="1" vertex="1">
          <mxGeometry x="480" y="960" width="120" height="60" as="geometry" />
        </mxCell>
        <mxCell id="Abwd0332JbdawSn48phl-41" value="" style="endArrow=classic;html=1;rounded=0;exitX=0.5;exitY=1;exitDx=0;exitDy=0;" parent="1" source="Abwd0332JbdawSn48phl-37" target="Abwd0332JbdawSn48phl-40" edge="1">
          <mxGeometry width="50" height="50" relative="1" as="geometry">
            <mxPoint x="350" y="820" as="sourcePoint" />
            <mxPoint x="400" y="770" as="targetPoint" />
          </mxGeometry>
        </mxCell>
        <mxCell id="Abwd0332JbdawSn48phl-42" value="" style="endArrow=none;dashed=1;html=1;dashPattern=1 3;strokeWidth=2;rounded=0;entryX=0.5;entryY=1;entryDx=0;entryDy=0;" parent="1" target="Abwd0332JbdawSn48phl-23" edge="1">
          <mxGeometry width="50" height="50" relative="1" as="geometry">
            <mxPoint x="-120" y="970" as="sourcePoint" />
            <mxPoint x="-100" y="460" as="targetPoint" />
          </mxGeometry>
        </mxCell>
        <mxCell id="Abwd0332JbdawSn48phl-43" value="Obtener Lista de Productos" style="rounded=0;whiteSpace=wrap;html=1;" parent="1" vertex="1">
          <mxGeometry x="-200" y="960" width="170" height="60" as="geometry" />
        </mxCell>
        <mxCell id="Abwd0332JbdawSn48phl-44" value="" style="endArrow=classic;html=1;rounded=0;exitX=0;exitY=0.5;exitDx=0;exitDy=0;entryX=1;entryY=0.5;entryDx=0;entryDy=0;" parent="1" source="Abwd0332JbdawSn48phl-40" target="Abwd0332JbdawSn48phl-43" edge="1">
          <mxGeometry width="50" height="50" relative="1" as="geometry">
            <mxPoint x="210" y="690" as="sourcePoint" />
            <mxPoint x="260" y="640" as="targetPoint" />
          </mxGeometry>
        </mxCell>
        <mxCell id="Abwd0332JbdawSn48phl-45" value="" style="endArrow=none;dashed=1;html=1;rounded=0;strokeColor=#33FF33;strokeWidth=3;" parent="1" edge="1">
          <mxGeometry width="50" height="50" relative="1" as="geometry">
            <mxPoint y="1150" as="sourcePoint" />
            <mxPoint y="120" as="targetPoint" />
          </mxGeometry>
        </mxCell>
        <mxCell id="Abwd0332JbdawSn48phl-46" value="" style="endArrow=none;dashed=1;html=1;rounded=0;strokeWidth=3;strokeColor=#33FF33;" parent="1" edge="1">
          <mxGeometry width="50" height="50" relative="1" as="geometry">
            <mxPoint x="360" y="1160" as="sourcePoint" />
            <mxPoint x="359" y="250" as="targetPoint" />
          </mxGeometry>
        </mxCell>
        <mxCell id="Abwd0332JbdawSn48phl-47" value="" style="endArrow=none;dashed=1;html=1;rounded=0;strokeWidth=3;strokeColor=#33FF33;" parent="1" edge="1">
          <mxGeometry width="50" height="50" relative="1" as="geometry">
            <mxPoint x="760" y="1160" as="sourcePoint" />
            <mxPoint x="760" y="120" as="targetPoint" />
          </mxGeometry>
        </mxCell>
      </root>
    </mxGraphModel>
  </diagram>
</mxfile>
